{"title":"Once.Upon.a.Time.in.the.West.1968.720p.Proper.BRRip.XviD.AC3-COD","uid":6428885,"size":3063302264,"categoryP":"video","categoryS":"hd___movies","magnet":"?xt=urn:btih:ba6ae78dfc52b14b8ec3596b028fb4bcd5b6ae15&amp;dn=Once.Upon.a.Time.in.the.West.1968.720p.Proper.BRRip.XviD.AC3-COD&amp;tr=udp%3A%2F%2Ftracker.openbittorrent.com%3A80&amp;tr=udp%3A%2F%2Fopen.demonii.com%3A1337&amp;tr=udp%3A%2F%2Ftracker.coppersurfer.tk%3A6969&amp;tr=udp%3A%2F%2Fexodus.desync.com%3A6969","seeders":0,"leechers":1,"uploader":"CODYBOSS1969","files":8,"time":1306573134,"description":"General\nComplete name                    : Once Upon a Time in the West [1968] 720p Proper BRRip XviD AC3 - CODY.avi\nFormat                           : AVI\nFormat/Info                      : Audio Video Interleave\nFormat profile                   : OpenDML\nFile size                        : 2.85 GiB\nDuration                         : 2h 46mn\nOverall bit rate                 : 2 456 Kbps\nWriting application              : VirtualDubMod 1.5.10.2 (build 2540/release)\nWriting library                  : VirtualDubMod build 2540/release\n\nVideo\nID                               : 0\nFormat                           : MPEG-4 Visual\nFormat profile                   : Advanced Simple@L5\nFormat settings, BVOP            : 2\nFormat settings, QPel            : No\nFormat settings, GMC             : No warppoints\nFormat settings, Matrix          : Default (H.263)\nMuxing mode                      : Packed bitstream\nCodec ID                         : XVID\nCodec ID/Hint                    : XviD\nDuration                         : 2h 46mn\nBit rate                         : 1 998 Kbps\nWidth                            : 1 280 pixels\nHeight                           : 544 pixels\nDisplay aspect ratio             : 2.35:1\nFrame rate                       : 23.976 fps\nColor space                      : YUV\nChroma subsampling               : 4:2:0\nBit depth                        : 8 bits\nScan type                        : Progressive\nCompression mode                 : Lossy\nBits/(Pixel*Frame)               : 0.120\nStream size                      : 2.32 GiB (81%)\nWriting library                  : XviD 1.2.0.dev47 (UTC 2006-11-01)\n\nAudio\nID                               : 1\nFormat                           : AC-3\nFormat/Info                      : Audio Coding 3\nMode extension                   : CM (complete main)\nCodec ID                         : 2000\nDuration                         : 2h 46mn\nBit rate mode                    : Constant\nBit rate                         : 448 Kbps\nChannel(s)                       : 6 channels\nChannel positions                : Front: L C R, Side: L R, LFE\nSampling rate                    : 48.0 KHz\nBit depth                        : 16 bits\nCompression mode                 : Lossy\nStream size                      : 532 MiB (18%)\nAlignment                        : Split accross interleaves\nInterleave, duration             : 42 ms (1.00 video frame)\nInterleave, preload duration     : 500 ms\n\n\n\nIMDB link:                        &lt;a href=&quot; http://www.imdb.com/title/tt0064116/&quot; rel=&quot;nofollow&quot; target=&quot;_NEW&quot;&gt; http://www.imdb.com/title/tt0064116/&lt;/a&gt;\n\n\n\n\nSubtitles included               : Romanian, English\n\n\n\nPlease seed at least 1,5:1. This way this torrent has a chance to survive!\n\n\n\nThanks. Enjoy !\n\n\n\n*** I HOPE THE DISTRUSTFUL FRIENDS WILL BE SATISFIED THIS TIME [ALTHOUGH THE QUALITY IS VERY MUCH THE SAME IN MY FIRST UPLOAD BUT THE SOURCE WAS HDTV-RIP]","torrent":{"xt":"urn:btih:ba6ae78dfc52b14b8ec3596b028fb4bcd5b6ae15","amp;dn":"Once.Upon.a.Time.in.the.West.1968.720p.Proper.BRRip.XviD.AC3-COD","amp;tr":["udp%3A%2F%2Ftracker.openbittorrent.com%3A80","udp%3A%2F%2Fopen.demonii.com%3A1337","udp%3A%2F%2Ftracker.coppersurfer.tk%3A6969","udp%3A%2F%2Fexodus.desync.com%3A6969"],"infoHash":"ba6ae78dfc52b14b8ec3596b028fb4bcd5b6ae15","infoHashBuffer":{"type":"Buffer","data":[186,106,231,141,252,82,177,75,142,195,89,107,2,143,180,188,213,182,174,21]},"announce":[],"urlList":[]}}